<?xml version="1.0" encoding="UTF-8"?>
<svg width="928px" height="1138px" viewBox="0 0 928 1138" xmlns="http://www.w3.org/2000/svg" xmlns:xlink="http://www.w3.org/1999/xlink" version="1.1">
 <!-- Generated by Pixelmator Pro 2.1.4 -->
 <path id="路径" d="M-36 -862 L964 -862 964 2278 -36 2278 Z" fill="none" stroke="none"/>
 <path id="路径-1" d="M897.779 388.391 C891.136 393.55 774.579 459.148 774.579 605.079 774.579 773.862 922.857 833.564 927.286 835.034 926.55 838.717 903.679 916.846 849.086 996.445 800.4 1066.467 749.493 1136.482 672.036 1136.482 594.579 1136.482 574.657 1091.522 485.393 1091.522 398.343 1091.522 367.357 1137.959 296.536 1137.959 225.714 1137.959 176.286 1073.096 119.486 993.497 53.829 899.89 0.714 754.693 0.714 616.869 0.714 395.756 144.571 278.562 286.207 278.562 361.457 278.562 424.157 327.946 471.371 327.946 516.371 327.946 586.457 275.615 672.029 275.615 704.493 275.622 821.057 278.577 897.779 388.391 Z M631.464 182.021 C666.871 140.01 691.957 81.784 691.957 23.558 691.957 15.452 691.221 7.345 689.743 0.708 632.2 2.92 563.593 39.037 522.279 86.944 489.821 123.796 459.571 182.021 459.571 240.989 459.571 249.831 461.05 258.68 461.786 261.628 465.471 262.363 471.379 263.105 477.279 263.105 528.921 263.098 593.836 228.458 631.464 182.021 Z" fill="#ffffff" fill-opacity="1" stroke="none"/>
</svg>
