<?xml version="1.0" encoding="UTF-8"?>
<svg width="24px" height="24px" viewBox="0 0 24 24" xmlns="http://www.w3.org/2000/svg" xmlns:xlink="http://www.w3.org/1999/xlink" version="1.1">
 <!-- Generated by Pixelmator Pro 2.1.4 -->
 <g id="group">
  <path id="路径" d="M12 0.5 C9.151 0.501 6.396 1.51 4.227 3.347 2.057 5.183 0.616 7.726 0.159 10.522 -0.297 13.318 0.262 16.184 1.736 18.608 3.21 21.032 5.503 22.856 8.205 23.753 8.801 23.864 9.025 23.494 9.025 23.18 9.025 22.866 9.014 21.955 9.01 20.959 5.671 21.68 4.966 19.55 4.966 19.55 4.421 18.167 3.635 17.804 3.635 17.804 2.546 17.065 3.716 17.079 3.716 17.079 4.922 17.164 5.556 18.31 5.556 18.31 6.625 20.133 8.364 19.606 9.047 19.298 9.155 18.525 9.467 18 9.81 17.701 7.144 17.401 4.342 16.377 4.342 11.805 4.325 10.62 4.768 9.473 5.578 8.603 5.455 8.302 5.043 7.089 5.695 5.441 5.695 5.441 6.703 5.121 8.996 6.664 10.963 6.13 13.038 6.13 15.005 6.664 17.296 5.121 18.301 5.441 18.301 5.441 18.955 7.085 18.544 8.298 18.42 8.603 19.233 9.473 19.676 10.622 19.658 11.809 19.658 16.391 16.851 17.401 14.18 17.695 14.609 18.067 14.993 18.792 14.993 19.906 14.993 21.503 14.979 22.787 14.979 23.18 14.979 23.498 15.195 23.869 15.803 23.753 18.506 22.856 20.799 21.032 22.273 18.607 23.747 16.183 24.305 13.316 23.849 10.52 23.392 7.724 21.949 5.18 19.779 3.345 17.609 1.509 14.853 0.501 12.004 0.5 Z" fill="#d9d9d9" fill-opacity="1" stroke="none"/>
  <path id="路径-1" d="M4.545 17.632 C4.519 17.691 4.423 17.709 4.346 17.668 4.268 17.626 4.211 17.549 4.239 17.488 4.266 17.427 4.36 17.411 4.437 17.452 4.515 17.494 4.574 17.573 4.545 17.632 Z" fill="#d9d9d9" fill-opacity="1" stroke="none"/>
  <path id="路径-2" d="M5.031 18.171 C4.99 18.192 4.943 18.198 4.898 18.188 4.853 18.178 4.813 18.152 4.785 18.116 4.707 18.033 4.691 17.919 4.751 17.867 4.811 17.816 4.918 17.84 4.995 17.922 5.073 18.005 5.091 18.12 5.031 18.171 Z" fill="#d9d9d9" fill-opacity="1" stroke="none"/>
  <path id="路径-3" d="M5.504 18.857 C5.431 18.908 5.306 18.857 5.236 18.754 5.217 18.736 5.202 18.714 5.191 18.689 5.181 18.665 5.175 18.639 5.175 18.612 5.175 18.585 5.181 18.559 5.191 18.535 5.202 18.51 5.217 18.488 5.236 18.47 5.31 18.42 5.435 18.47 5.504 18.57 5.574 18.671 5.576 18.806 5.504 18.857 Z" fill="#d9d9d9" fill-opacity="1" stroke="none"/>
  <path id="路径-4" d="M6.146 19.521 C6.081 19.594 5.947 19.574 5.838 19.475 5.729 19.377 5.703 19.242 5.769 19.171 5.834 19.1 5.967 19.12 6.081 19.217 6.194 19.313 6.216 19.45 6.146 19.521 Z" fill="#d9d9d9" fill-opacity="1" stroke="none"/>
  <path id="路径-5" d="M7.046 19.908 C7.016 20.001 6.881 20.042 6.746 20.003 6.611 19.963 6.522 19.853 6.547 19.758 6.573 19.663 6.71 19.62 6.847 19.663 6.985 19.707 7.072 19.811 7.046 19.908 Z" fill="#d9d9d9" fill-opacity="1" stroke="none"/>
  <path id="路径-6" d="M8.028 19.975 C8.028 20.072 7.917 20.155 7.773 20.157 7.63 20.159 7.513 20.08 7.513 19.983 7.513 19.886 7.624 19.803 7.768 19.801 7.911 19.799 8.028 19.876 8.028 19.975 Z" fill="#d9d9d9" fill-opacity="1" stroke="none"/>
  <path id="路径-7" d="M8.942 19.823 C8.96 19.92 8.86 20.021 8.717 20.044 8.574 20.068 8.449 20.011 8.431 19.916 8.413 19.821 8.517 19.718 8.656 19.693 8.795 19.667 8.924 19.726 8.942 19.823 Z" fill="#d9d9d9" fill-opacity="1" stroke="none"/>
 </g>
</svg>
