<?xml version="1.0" encoding="UTF-8"?>
<svg width="24px" height="24px" viewBox="0 0 24 24" xmlns="http://www.w3.org/2000/svg" xmlns:xlink="http://www.w3.org/1999/xlink" version="1.1">
 <!-- Generated by Pixelmator Pro 2.1.4 -->
 <g id="group">
  <path id="路径" d="M7.55 21.75 C16.604 21.75 21.558 14.247 21.558 7.742 21.558 7.531 21.554 7.315 21.544 7.104 22.508 6.407 23.34 5.544 24 4.555 23.102 4.955 22.15 5.215 21.174 5.329 22.201 4.713 22.97 3.746 23.339 2.606 22.373 3.179 21.316 3.583 20.213 3.801 19.471 3.012 18.489 2.489 17.42 2.314 16.35 2.139 15.253 2.321 14.298 2.832 13.342 3.343 12.582 4.155 12.134 5.141 11.686 6.128 11.575 7.235 11.819 8.29 9.862 8.192 7.948 7.684 6.2 6.798 4.452 5.913 2.91 4.669 1.673 3.15 1.044 4.233 0.852 5.516 1.135 6.736 1.418 7.957 2.155 9.023 3.196 9.72 2.415 9.695 1.65 9.485 0.966 9.106 L0.966 9.167 C0.965 10.304 1.358 11.407 2.078 12.287 2.799 13.167 3.801 13.771 4.916 13.995 4.192 14.193 3.432 14.222 2.695 14.079 3.009 15.057 3.622 15.913 4.446 16.526 5.27 17.14 6.265 17.481 7.292 17.501 5.548 18.871 3.394 19.614 1.177 19.611 0.783 19.61 0.39 19.586 -0 19.538 2.253 20.984 4.874 21.751 7.55 21.75 Z" fill="#d9d9d9" fill-opacity="1" stroke="none"/>
 </g>
</svg>
